<svg width="114" height="23" viewBox="0 0 114 23" fill="none" xmlns="http://www.w3.org/2000/svg">
<path d="M0 17.4609V0H4.45312L7.85156 9.17578C8.01562 9.66016 8.22266 10.293 8.47266 11.0742C8.72266 11.8477 8.94922 12.5742 9.15234 13.2539C9.35547 12.5742 9.57812 11.8477 9.82031 11.0742C10.0703 10.293 10.2773 9.66016 10.4414 9.17578L13.7812 0H18.2578V17.4609H15.2109V8.55469C15.2109 7.9375 15.2227 7.17969 15.2461 6.28125C15.2695 5.38281 15.293 4.48828 15.3164 3.59766C15.0039 4.58203 14.707 5.52344 14.4258 6.42188C14.1445 7.3125 13.9102 8.02344 13.7227 8.55469L10.3945 17.4609H7.86328L4.51172 8.55469C4.33203 8.04688 4.10156 7.37109 3.82031 6.52734C3.54688 5.67578 3.25781 4.78125 2.95312 3.84375C2.97656 4.70312 2.99609 5.55859 3.01172 6.41016C3.03516 7.25391 3.04688 7.96875 3.04688 8.55469V17.4609H0ZM21.4102 22.3594V19.957H22.875C23.2734 19.957 23.582 19.8477 23.8008 19.6289C24.0273 19.418 24.2266 19.0703 24.3984 18.5859L24.8555 17.3906L20.0859 5.08594H23.2148L25.4883 11.5312C25.6445 11.9922 25.7969 12.4531 25.9453 12.9141C26.0938 13.3672 26.2383 13.8203 26.3789 14.2734C26.6602 13.3672 26.957 12.4531 27.2695 11.5312L29.5312 5.08594H32.625L27.0938 19.5C26.3594 21.4062 25.1094 22.3594 23.3438 22.3594H21.4102ZM34.1484 22.3594V5.08594H37.0547V6.80859H37.0898C37.4805 6.15234 38.0039 5.66016 38.6602 5.33203C39.3164 5.00391 40.043 4.83984 40.8398 4.83984C41.9023 4.83984 42.832 5.11328 43.6289 5.66016C44.4336 6.19922 45.0586 6.95312 45.5039 7.92188C45.957 8.88281 46.1836 9.99609 46.1836 11.2617C46.1836 12.5508 45.9609 13.6797 45.5156 14.6484C45.0781 15.6094 44.457 16.3594 43.6523 16.8984C42.8477 17.4375 41.9062 17.707 40.8281 17.707C40.0156 17.707 39.293 17.5312 38.6602 17.1797C38.0352 16.8281 37.5273 16.3008 37.1367 15.5977H37.1016V22.3594H34.1484ZM40.1367 15.2344C41.0508 15.2344 41.7891 14.8945 42.3516 14.2148C42.9141 13.5273 43.1953 12.543 43.1953 11.2617C43.1953 9.98828 42.9141 9.00781 42.3516 8.32031C41.7891 7.63281 41.0508 7.28906 40.1367 7.28906C39.168 7.28906 38.3906 7.65234 37.8047 8.37891C37.2266 9.09766 36.9375 10.0586 36.9375 11.2617C36.9375 12.4648 37.2266 13.4297 37.8047 14.1562C38.3906 14.875 39.168 15.2344 40.1367 15.2344ZM51.1875 5.08594V9.99609H56.6484V5.08594H59.6133V17.4609H56.6484V12.5391H51.1875V17.4609H48.2344V5.08594H51.1875ZM67.7578 17.7422C66.5391 17.7422 65.4727 17.4727 64.5586 16.9336C63.6445 16.3867 62.9297 15.6289 62.4141 14.6602C61.9062 13.6914 61.6523 12.5664 61.6523 11.2852C61.6523 10.0039 61.9062 8.87891 62.4141 7.91016C62.9297 6.93359 63.6445 6.17188 64.5586 5.625C65.4727 5.07812 66.5391 4.80469 67.7578 4.80469C68.9688 4.80469 70.0312 5.07812 70.9453 5.625C71.8672 6.17188 72.582 6.93359 73.0898 7.91016C73.6055 8.87891 73.8633 10.0039 73.8633 11.2852C73.8633 12.5664 73.6055 13.6914 73.0898 14.6602C72.582 15.6289 71.8672 16.3867 70.9453 16.9336C70.0312 17.4727 68.9688 17.7422 67.7578 17.7422ZM67.7578 15.2695C68.7031 15.2695 69.457 14.9141 70.0195 14.2031C70.582 13.4922 70.8633 12.5195 70.8633 11.2852C70.8633 10.0508 70.582 9.07422 70.0195 8.35547C69.457 7.63672 68.7031 7.27734 67.7578 7.27734C66.8047 7.27734 66.0469 7.63672 65.4844 8.35547C64.9219 9.06641 64.6406 10.043 64.6406 11.2852C64.6406 12.5195 64.9219 13.4922 65.4844 14.2031C66.0469 14.9141 66.8047 15.2695 67.7578 15.2695ZM75.9141 22.3594V5.08594H78.8203V6.80859H78.8555C79.2461 6.15234 79.7695 5.66016 80.4258 5.33203C81.082 5.00391 81.8086 4.83984 82.6055 4.83984C83.668 4.83984 84.5977 5.11328 85.3945 5.66016C86.1992 6.19922 86.8242 6.95312 87.2695 7.92188C87.7227 8.88281 87.9492 9.99609 87.9492 11.2617C87.9492 12.5508 87.7266 13.6797 87.2812 14.6484C86.8438 15.6094 86.2227 16.3594 85.418 16.8984C84.6133 17.4375 83.6719 17.707 82.5938 17.707C81.7812 17.707 81.0586 17.5312 80.4258 17.1797C79.8008 16.8281 79.293 16.3008 78.9023 15.5977H78.8672V22.3594H75.9141ZM81.9023 15.2344C82.8164 15.2344 83.5547 14.8945 84.1172 14.2148C84.6797 13.5273 84.9609 12.543 84.9609 11.2617C84.9609 9.98828 84.6797 9.00781 84.1172 8.32031C83.5547 7.63281 82.8164 7.28906 81.9023 7.28906C80.9336 7.28906 80.1562 7.65234 79.5703 8.37891C78.9922 9.09766 78.7031 10.0586 78.7031 11.2617C78.7031 12.4648 78.9922 13.4297 79.5703 14.1562C80.1562 14.875 80.9336 15.2344 81.9023 15.2344ZM90 17.4609V5.08594H92.9531V10.1133H94.0547L98.1562 5.08594H101.73L96.8438 11.1094L101.777 17.4609H98.1914L94.4648 12.6562H92.9531V17.4609H90ZM106.758 17.6602C105.523 17.6602 104.5 17.3516 103.688 16.7344C102.883 16.1094 102.48 15.1797 102.48 13.9453C102.48 13.0078 102.707 12.2852 103.16 11.7773C103.621 11.2617 104.219 10.8867 104.953 10.6523C105.695 10.418 106.492 10.2578 107.344 10.1719C108.492 10.0391 109.293 9.92188 109.746 9.82031C110.199 9.71875 110.426 9.45703 110.426 9.03516V8.94141C110.426 8.41016 110.223 7.97656 109.816 7.64062C109.418 7.30469 108.867 7.13672 108.164 7.13672C107.445 7.13672 106.859 7.30469 106.406 7.64062C105.961 7.97656 105.719 8.40625 105.68 8.92969H102.832C102.902 7.70312 103.414 6.71484 104.367 5.96484C105.32 5.21484 106.605 4.83984 108.223 4.83984C109.832 4.83984 111.09 5.21484 111.996 5.96484C112.902 6.71484 113.355 7.73438 113.355 9.02344V17.4609H110.449V15.7148H110.402C110.105 16.2617 109.676 16.7227 109.113 17.0977C108.551 17.4727 107.766 17.6602 106.758 17.6602ZM107.484 15.4688C108.453 15.4688 109.188 15.2188 109.688 14.7188C110.188 14.2109 110.438 13.5977 110.438 12.8789V11.543C110.258 11.6602 109.91 11.7695 109.395 11.8711C108.879 11.9648 108.316 12.0586 107.707 12.1523C107.074 12.2461 106.523 12.4258 106.055 12.6914C105.594 12.9492 105.363 13.3594 105.363 13.9219C105.363 14.4062 105.555 14.7852 105.938 15.0586C106.32 15.332 106.836 15.4688 107.484 15.4688Z" fill="black"/>
</svg>
